<svg xmlns="http://www.w3.org/2000/svg" width="21.594" height="24.656" viewBox="0 0 21.594 24.656"><defs><style>.cls-1{fill:#f4f4f4;fill-rule:evenodd}</style></defs><path id="icon" class="cls-1" d="M432.634 374.96a1.545 1.545 0 0 0-1.541 1.541v6.164a1.541 1.541 0 1 0 3.082 0V376.5a1.545 1.545 0 0 0-1.541-1.54zm-18.493 0a1.545 1.545 0 0 0-1.54 1.541v6.164a1.541 1.541 0 1 0 3.082 0V376.5a1.545 1.545 0 0 0-1.542-1.54zm2.312 10.017a2.312 2.312 0 0 0 2.312 2.311h.77v3.082a1.541 1.541 0 0 0 3.082 0v-3.082h1.541v3.082a1.541 1.541 0 0 0 3.082 0v-3.082h.771a2.311 2.311 0 0 0 2.311-2.311V376.5h-13.869v8.476zm9.79-15.567l.975-1.874a.192.192 0 1 0-.341-.177l-.99 1.9a6.962 6.962 0 0 0-5 0l-.99-1.9a.193.193 0 1 0-.342.177l.975 1.874a6.938 6.938 0 0 0-4.036 5.55h13.783a6.936 6.936 0 0 0-4.034-5.55zm-5.937 4.356a1.118 1.118 0 1 1 1.117-1.118 1.119 1.119 0 0 1-1.117 1.118zm6.164 0a1.118 1.118 0 1 1 1.117-1.118 1.119 1.119 0 0 1-1.117 1.118z" transform="translate(-412.594 -367.25)"/></svg>